HIERARCHY
ROOT joint_Root
{
	OFFSET 0.0 0.0 0.0
	CHANNELS 6 Xposition Yposition Zposition Zrotation Xrotation Yrotation 
	JOINT Hips
	{
		OFFSET 4.5925 91.4895 -427.239
		CHANNELS 6 Xposition Yposition Zposition Zrotation Xrotation Yrotation 
		JOINT Spine
		{
			OFFSET 15.7357 0.0 0.0
			CHANNELS 6 Xposition Yposition Zposition Zrotation Xrotation Yrotation 
			JOINT Chest
			{
				OFFSET 8.98455 -0.406207 0.0
				CHANNELS 6 Xposition Yposition Zposition Zrotation Xrotation Yrotation 
				JOINT Neck
				{
					OFFSET 16.3773 0.0 0.0
					CHANNELS 6 Xposition Yposition Zposition Zrotation Xrotation Yrotation 
					JOINT Head
					{
						OFFSET 6.45672 0.0 0.0
						CHANNELS 6 Xposition Yposition Zposition Zrotation Xrotation Yrotation 
						End Site
						{
							OFFSET 0.0 0.0 0.0
						}
					}
				}
				JOINT Shoulder_L
				{
					OFFSET 12.9942 -0.242716 4.98039
					CHANNELS 6 Xposition Yposition Zposition Zrotation Xrotation Yrotation 
					JOINT UpperArm_L
					{
						OFFSET 5.34809 0.0 0.0
						CHANNELS 6 Xposition Yposition Zposition Zrotation Xrotation Yrotation 
						JOINT LowerArm_L
						{
							OFFSET 24.3286 1.87007e-05 0.0
							CHANNELS 6 Xposition Yposition Zposition Zrotation Xrotation Yrotation 
							JOINT Hand_L
							{
								OFFSET 22.2916 0.0 0.0
								CHANNELS 6 Xposition Yposition Zposition Zrotation Xrotation Yrotation 
								End Site
								{
									OFFSET 0.0 0.0 0.0
								}
							}
						}
					}
				}
				JOINT Shoulder_R
				{
					OFFSET 12.9945 -0.242716 -4.98039
					CHANNELS 6 Xposition Yposition Zposition Zrotation Xrotation Yrotation 
					JOINT UpperArm_R
					{
						OFFSET -5.34813 0.0 0.0
						CHANNELS 6 Xposition Yposition Zposition Zrotation Xrotation Yrotation 
						JOINT LowerArm_R
						{
							OFFSET -24.3289 0.000322201 0.0
							CHANNELS 6 Xposition Yposition Zposition Zrotation Xrotation Yrotation 
							JOINT Hand_R
							{
								OFFSET -22.2915 -0.000108084 0.0
								CHANNELS 6 Xposition Yposition Zposition Zrotation Xrotation Yrotation 
								End Site
								{
									OFFSET 0.0 0.0 0.0
								}
							}
						}
					}
				}
			}
		}
		JOINT UpperLeg_L
		{
			OFFSET -2.19248 -6.46944 0.0
			CHANNELS 6 Xposition Yposition Zposition Zrotation Xrotation Yrotation 
			JOINT LowerLeg_L
			{
				OFFSET 39.0811 0.0 -1.23785e-05
				CHANNELS 6 Xposition Yposition Zposition Zrotation Xrotation Yrotation 
				JOINT Foot_L
				{
					OFFSET 40.9854 0.0 -1.26872e-05
					CHANNELS 6 Xposition Yposition Zposition Zrotation Xrotation Yrotation 
					JOINT Toes_L
					{
						OFFSET 11.7543 0.0 0.0
						CHANNELS 6 Xposition Yposition Zposition Zrotation Xrotation Yrotation 
						End Site
						{
							OFFSET 0.0 0.0 0.0
						}
					}
				}
			}
		}
		JOINT UpperLeg_R
		{
			OFFSET -2.19251 6.46944 0.0
			CHANNELS 6 Xposition Yposition Zposition Zrotation Xrotation Yrotation 
			JOINT LowerLeg_R
			{
				OFFSET -39.0811 -0.00228153 -0.0401928
				CHANNELS 6 Xposition Yposition Zposition Zrotation Xrotation Yrotation 
				JOINT Foot_R
				{
					OFFSET -40.9854 0.0 0.0
					CHANNELS 6 Xposition Yposition Zposition Zrotation Xrotation Yrotation 
					JOINT Toes_R
					{
						OFFSET -11.7543 0.0 0.0
						CHANNELS 6 Xposition Yposition Zposition Zrotation Xrotation Yrotation 
						End Site
						{
							OFFSET 0.0 0.0 0.0
						}
					}
				}
			}
		}
	}
}
MOTION
Frames:	6
Frame Time:	0.0333333
0.000000 0.000000 0.000000 0.000000 0.000000 -0.000000 133.662000 88.630400 -40.384300 89.359900 -4.790280 1.325830 15.735700 0.000005 -0.000001 91.570200 79.889000 -93.517300 8.984550 -0.406207 -0.000000 12.459700 0.469330 -3.944850 16.377300 -0.000001 -0.000001 -1.058650 -3.924750 1.812060 6.456720 -0.000001 -0.000000 -7.367790 -4.512980 4.359530 12.994200 -0.242716 4.980390 -91.244600 5.118340 -76.313700 5.348090 -0.000007 -0.000001 -56.584600 33.729000 -24.662200 24.328600 0.000019 0.000005 5.207700 15.874200 -18.428700 22.291600 -0.000001 0.000005 12.662700 5.214480 2.353570 12.994500 -0.242716 -4.980390 89.130800 10.057700 -85.035100 -5.348130 -0.000001 -0.000004 -60.297800 34.900700 -17.386500 -24.328900 0.000322 -0.000009 -1.037500 -2.172660 -25.505600 -22.291500 -0.000108 -0.000004 18.634500 5.457700 -4.915200 -2.192480 -6.469440 -0.000000 -179.236000 -7.739350 -21.682400 39.081100 -0.000007 -0.000012 -0.292325 0.319978 42.414700 40.985400 -0.000006 -0.000013 0.382645 -2.047920 -69.735400 11.754300 -0.000000 0.000003 -0.000149 -0.001446 -16.632500 -2.192510 6.469440 -0.000001 176.345000 11.920300 168.026000 -39.081100 -0.002282 -0.040193 0.132067 -0.082655 57.321000 -40.985400 0.000008 0.000006 3.899310 -1.788620 -63.331300 -11.754300 -0.000006 -0.000006 -0.042834 -0.271215 -27.722500
0.000000 0.000000 0.000000 0.000000 0.000000 -0.000000 133.878000 88.747200 -37.988600 88.921800 -5.090030 1.772790 15.735700 0.000005 -0.000001 90.432400 79.878500 -92.372300 8.984550 -0.406207 -0.000000 12.480600 0.071672 -3.887080 16.377300 -0.000001 -0.000001 -1.152840 -3.596870 1.566800 6.456720 -0.000001 -0.000000 -7.411530 -3.899340 4.161770 12.994200 -0.242716 4.980390 -91.191100 4.961640 -76.482800 5.348090 -0.000007 -0.000001 -55.957900 33.073200 -25.669100 24.328600 0.000019 0.000005 5.154530 15.124000 -19.072600 22.291600 -0.000001 0.000005 12.611900 5.212900 2.393810 12.994500 -0.242716 -4.980390 89.118300 9.984230 -84.927500 -5.348130 -0.000001 -0.000004 -60.844500 36.194800 -16.908200 -24.328900 0.000322 -0.000009 -0.333605 -0.740779 -24.141300 -22.291500 -0.000108 -0.000004 17.964000 5.446040 -4.497550 -2.192480 -6.469440 -0.000000 -178.777000 -7.896920 -19.199000 39.081100 -0.000007 -0.000012 -0.318745 0.351424 42.209000 40.985400 -0.000006 -0.000013 0.326839 -2.246920 -71.525800 11.754300 -0.000000 0.000003 -0.000151 -0.001459 -16.633000 -2.192510 6.469440 -0.000001 177.032000 11.772600 164.000000 -39.081100 -0.002282 -0.040193 0.162095 -0.077631 63.965300 -40.985400 0.000008 0.000006 4.876470 -4.324230 -57.913000 -11.754300 -0.000006 -0.000006 -0.014136 -0.132307 -21.969900
0.000000 0.000000 0.000000 0.000000 0.000000 -0.000000 134.024000 88.965700 -35.807700 88.390800 -5.323170 1.783920 15.735700 0.000005 -0.000001 89.343000 80.012800 -91.164100 8.984550 -0.406207 -0.000000 12.205000 -0.297428 -3.609750 16.377300 -0.000001 -0.000001 -1.255690 -3.423610 1.403130 6.456720 -0.000001 -0.000000 -7.240700 -3.489600 3.849510 12.994200 -0.242716 4.980390 -91.194200 5.018250 -76.596400 5.348090 -0.000007 -0.000001 -54.351700 33.341400 -27.130000 24.328600 0.000019 0.000005 5.167260 14.508500 -19.847800 22.291600 -0.000001 0.000005 12.753200 5.217700 2.271550 12.994500 -0.242716 -4.980390 89.084700 10.094600 -84.792100 -5.348130 -0.000001 -0.000004 -61.506100 36.685500 -16.130000 -24.328900 0.000322 -0.000009 0.333747 0.783903 -23.133200 -22.291500 -0.000108 -0.000004 17.528100 5.440950 -4.318920 -2.192480 -6.469440 -0.000000 -178.230000 -8.233140 -16.990800 39.081100 -0.000007 -0.000012 -0.329033 0.373895 41.349000 40.985400 -0.000006 -0.000013 0.332013 -2.174750 -72.809100 11.754300 -0.000000 0.000003 -0.000187 -0.001749 -16.643700 -2.192510 6.469440 -0.000001 178.132000 11.886300 160.684000 -39.081100 -0.002282 -0.040193 0.155774 -0.064907 66.961800 -40.985400 0.000008 0.000006 5.056460 -4.549130 -59.066900 -11.754300 -0.000006 -0.000006 -0.013782 -0.130004 -21.875500
0.000000 0.000000 0.000000 0.000000 0.000000 -0.000000 134.134000 89.316300 -33.817500 87.846100 -5.489040 1.637250 15.735700 0.000005 -0.000001 88.306700 80.137700 -89.916700 8.984550 -0.406207 -0.000000 11.943500 -0.636426 -3.152640 16.377300 -0.000001 -0.000001 -1.370350 -3.319140 1.302820 6.456720 -0.000001 -0.000000 -7.221770 -3.176190 3.508570 12.994200 -0.242716 4.980390 -91.206300 5.108470 -76.694600 5.348090 -0.000007 -0.000001 -52.711600 33.638500 -28.651300 24.328600 0.000019 0.000005 5.604890 14.856900 -20.943300 22.291600 -0.000001 0.000005 12.988700 5.216970 2.289710 12.994500 -0.242716 -4.980390 89.049100 10.114300 -84.601000 -5.348130 -0.000001 -0.000004 -62.216400 36.532500 -15.382300 -24.328900 0.000322 -0.000009 0.293609 0.716591 -22.352100 -22.291500 -0.000108 -0.000004 17.441500 5.442060 -4.357940 -2.192480 -6.469440 -0.000000 -177.671000 -8.593780 -14.714800 39.081100 -0.000007 -0.000012 -0.325648 0.392084 39.712300 40.985400 -0.000006 -0.000013 0.356055 -2.037010 -73.536500 11.754300 -0.000000 0.000003 -0.000212 -0.001947 -16.650900 -2.192510 6.469440 -0.000001 179.529000 12.522200 157.867000 -39.081100 -0.002282 -0.040193 0.140599 -0.061539 65.879600 -40.985400 0.000008 0.000006 3.897560 -3.882770 -59.692700 -11.754300 -0.000006 -0.000006 -0.013942 -0.131046 -21.918200
0.000000 0.000000 0.000000 0.000000 0.000000 -0.000000 134.207000 89.679100 -31.916000 87.432000 -5.412010 1.457610 15.735700 0.000005 -0.000001 87.108200 80.210300 -88.489800 8.984550 -0.406207 -0.000000 11.778900 -1.027770 -2.656440 16.377300 -0.000001 -0.000001 -1.432900 -3.348710 1.259950 6.456720 -0.000001 -0.000000 -7.382280 -2.939220 3.287240 12.994200 -0.242716 4.980390 -91.123300 4.803070 -76.820600 5.348090 -0.000007 -0.000001 -51.864800 33.605800 -29.930800 24.328600 0.000019 0.000005 5.989900 14.906900 -22.189300 22.291600 -0.000001 0.000005 13.086000 5.214970 2.341400 12.994500 -0.242716 -4.980390 89.035800 9.847200 -84.379800 -5.348130 -0.000001 -0.000004 -63.205400 35.858700 -14.668200 -24.328900 0.000322 -0.000009 0.129031 0.323615 -21.902500 -22.291500 -0.000108 -0.000004 17.392100 5.441270 -4.329960 -2.192480 -6.469440 -0.000000 -177.226000 -8.909690 -12.437900 39.081100 -0.000007 -0.000012 -0.308019 0.398265 37.719100 40.985400 -0.000006 -0.000013 0.406549 -1.781950 -73.958900 11.754300 -0.000000 0.000003 -0.000242 -0.002175 -16.659100 -2.192510 6.469440 -0.000001 -178.846000 13.761700 156.016000 -39.081100 -0.002282 -0.040193 0.108739 -0.058165 61.141300 -40.985400 0.000008 0.000006 3.761160 -2.803490 -61.130200 -11.754300 -0.000006 -0.000006 -0.013543 -0.128439 -21.811300
0.000000 0.000000 0.000000 0.000000 0.000000 -0.000000 134.271000 89.935800 -30.122600 87.167100 -5.167190 1.089350 15.735700 0.000005 -0.000001 85.923900 80.305400 -87.079300 8.984550 -0.406207 -0.000000 11.563400 -1.405160 -2.167630 16.377300 -0.000001 -0.000001 -1.506650 -3.417880 1.245390 6.456720 -0.000001 -0.000000 -7.540090 -2.847230 3.140620 12.994200 -0.242716 4.980390 -91.018300 4.380780 -76.900200 5.348090 -0.000007 -0.000001 -51.412300 33.332100 -31.052900 24.328600 0.000019 0.000005 6.144640 14.347700 -23.482200 22.291600 -0.000001 0.000005 12.968400 5.218610 2.248190 12.994500 -0.242716 -4.980390 89.012700 9.573080 -84.083900 -5.348130 -0.000001 -0.000004 -63.988700 35.087700 -14.150400 -24.328900 0.000322 -0.000009 0.268938 0.676186 -21.767300 -22.291500 -0.000108 -0.000004 17.396000 5.433880 -4.072480 -2.192480 -6.469440 -0.000000 -177.017000 -9.054380 -10.562300 39.081100 -0.000007 -0.000012 -0.267470 0.368700 35.959100 40.985400 -0.000006 -0.000013 1.071690 -1.624070 -74.433600 11.754300 -0.000000 0.000003 -0.340456 -0.448667 -16.351600 -2.192510 6.469440 -0.000001 -177.148000 15.328400 154.758000 -39.081100 -0.002282 -0.040193 0.076238 -0.053926 53.548400 -40.985400 0.000008 0.000006 2.735410 -1.341320 -61.922300 -11.754300 -0.000006 -0.000006 -0.014184 -0.132619 -21.982700
